{
  "accessors": [
    {
      "bufferView": 2,
      "componentType": 5126,
      "count": 9174,
      "max": [
        -0.04951286315917969,
        1.0,
        0.021103257313370705
      ],
      "min": [
        -1.0,
        -1.0,
        -0.03201785683631897
      ],
      "type": "VEC3"
    },
    {
      "bufferView": 2,
      "byteOffset": 110088,
      "componentType": 5126,
      "count": 9174,
      "max": [
        1.0,
        1.0,
        1.0
      ],
      "min": [
        -1.0,
        -1.0,
        -1.0
      ],
      "type": "VEC3"
    },
    {
      "bufferView": 1,
      "componentType": 5126,
      "count": 9174,
      "max": [
        0.8748656511306763,
        0.9553835391998291
      ],
      "min": [
        0.11966317892074585,
        0.05038349702954292
      ],
      "type": "VEC2"
    },
    {
      "bufferView": 0,
      "componentType": 5125,
      "count": 48537,
      "type": "SCALAR"
    }
  ],
  "asset": {
    "extras": {
      "author": "supahot (https://sketchfab.com/supahot)",
      "license": "CC-BY-4.0 (http://creativecommons.org/licenses/by/4.0/)",
      "source": "https://sketchfab.com/3d-models/prayer-carpet-610ce2e5b3f747eeaf5b23c817067d95",
      "title": "Prayer carpet"
    },
    "generator": "Sketchfab-15.31.0",
    "version": "2.0"
  },
  "bufferViews": [
    {
      "buffer": 0,
      "byteLength": 194148,
      "name": "floatBufferViews",
      "target": 34963
    },
    {
      "buffer": 0,
      "byteLength": 73392,
      "byteOffset": 194148,
      "byteStride": 8,
      "name": "floatBufferViews",
      "target": 34962
    },
    {
      "buffer": 0,
      "byteLength": 220176,
      "byteOffset": 267540,
      "byteStride": 12,
      "name": "floatBufferViews",
      "target": 34962
    }
  ],
  "buffers": [
    {
      "byteLength": 487716,
      "uri": "scene.bin"
    }
  ],
  "extensionsUsed": [
    "KHR_materials_specular"
  ],
  "images": [
    {
      "uri": "textures/Material.006_baseColor.jpeg"
    }
  ],
  "materials": [
    {
      "doubleSided": true,
      "extensions": {
        "KHR_materials_specular": {
          "specularColorFactor": [
            1.0,
            1.0,
            1.0
          ],
          "specularFactor": 0.0
        }
      },
      "name": "Material.006",
      "pbrMetallicRoughness": {
        "baseColorFactor": [
          0.7908595530957808,
          0.7908595530957808,
          0.7908595530957808,
          1.0
        ],
        "baseColorTexture": {
          "index": 0
        },
        "metallicFactor": 0.5287635162316685,
        "roughnessFactor": 0.8211145618000169
      }
    }
  ],
  "meshes": [
    {
      "name": "Plane.001_Material.006_0",
      "primitives": [
        {
          "attributes": {
            "NORMAL": 1,
            "POSITION": 0,
            "TEXCOORD_0": 2
          },
          "indices": 3,
          "material": 0,
          "mode": 4
        }
      ]
    }
  ],
  "nodes": [
    {
      "children": [
        1
      ],
      "matrix": [
        1.0,
        0.0,
        0.0,
        0.0,
        0.0,
        2.220446049250313e-16,
        -1.0,
        0.0,
        0.0,
        1.0,
        2.220446049250313e-16,
        0.0,
        0.0,
        0.0,
        0.0,
        1.0
      ],
      "name": "Sketchfab_model"
    },
    {
      "children": [
        2
      ],
      "matrix": [
        0.009999999776482582,
        0.0,
        0.0,
        0.0,
        0.0,
        0.0,
        0.009999999776482582,
        0.0,
        0.0,
        -0.009999999776482582,
        0.0,
        0.0,
        0.0,
        0.0,
        0.0,
        1.0
      ],
      "name": "7dc359201da949a0aa74106192e385f7.fbx"
    },
    {
      "children": [
        3
      ],
      "name": "RootNode"
    },
    {
      "children": [
        4
      ],
      "matrix": [
        574.91162109375,
        0.0,
        0.0,
        0.0,
        -0.0,
        -9.36649918988529e-05,
        -574.9116210937424,
        0.0,
        0.0,
        574.9116210937424,
        -9.36649918988529e-05,
        0.0,
        -1554.5701904296875,
        92.2808609008789,
        -415.37542724609375,
        1.0
      ],
      "name": "Plane.001"
    },
    {
      "mesh": 0,
      "name": "Plane.001_Material.006_0"
    }
  ],
  "samplers": [
    {
      "magFilter": 9729,
      "minFilter": 9987,
      "wrapS": 10497,
      "wrapT": 10497
    }
  ],
  "scene": 0,
  "scenes": [
    {
      "name": "Sketchfab_Scene",
      "nodes": [
        0
      ]
    }
  ],
  "textures": [
    {
      "sampler": 0,
      "source": 0
    }
  ]
}
